<mxfile host="app.diagrams.net" modified="2023-07-07T23:50:54.608Z" agent="Mozilla/5.0 (Macintosh; Intel Mac OS X 10_15_7) AppleWebKit/537.36 (KHTML, like Gecko) Chrome/114.0.0.0 Safari/537.36" version="21.5.2" etag="uaY_KP5tCMZZ78WKNU2n" type="github">
  <diagram name="第 1 页" id="ikR7i4KXqVAYdrTPTn3q">
    <mxGraphModel>
      <root>
        <mxCell id="0" />
        <mxCell id="1" parent="0" />
      </root>
    </mxGraphModel>
  </diagram>
</mxfile>
